<svg width="18" height="18" viewBox="0 0 18 18" xmlns="http://www.w3.org/2000/svg">
<path d="M8.99996 0.666672C4.39996 0.666672 0.666626 4.40001 0.666626 9.00001C0.666626 13.6 4.39996 17.3333 8.99996 17.3333C13.6 17.3333 17.3333 13.6 17.3333 9.00001C17.3333 4.40001 13.6 0.666672 8.99996 0.666672ZM6.74163 12.575L3.74996 9.58334C3.42496 9.25834 3.42496 8.73334 3.74996 8.40834C4.07496 8.08334 4.59996 8.08334 4.92496 8.40834L7.33329 10.8083L13.0666 5.07501C13.3916 4.75001 13.9166 4.75001 14.2416 5.07501C14.5666 5.40001 14.5666 5.925 14.2416 6.25001L7.91663 12.575C7.59996 12.9 7.06663 12.9 6.74163 12.575Z"/>
</svg>
