<svg width="33" height="33" viewBox="0 0 33 33" xmlns="http://www.w3.org/2000/svg">
<path d="M28.1667 21.3271L31.9583 17.5354C32.5271 16.9667 32.5271 16.0479 31.9583 15.4792L28.1667 11.6729V6.29167C28.1667 5.48958 27.5104 4.83333 26.7083 4.83333H21.3271L17.5354 1.04167C16.9667 0.472917 16.0479 0.472917 15.4792 1.04167L11.6729 4.83333H6.29167C5.48959 4.83333 4.83334 5.48958 4.83334 6.29167V11.6729L1.04167 15.4646C0.472925 16.0333 0.472925 16.9521 1.04167 17.5208L4.83334 21.3125V26.7083C4.83334 27.5104 5.48959 28.1667 6.29167 28.1667H11.6729L15.4646 31.9583C16.0333 32.5271 16.9521 32.5271 17.5208 31.9583L21.3125 28.1667H26.7083C27.5104 28.1667 28.1667 27.5104 28.1667 26.7083V21.3271ZM16.5 25.25C11.6729 25.25 7.75001 21.3271 7.75001 16.5C7.75001 11.6729 11.6729 7.75 16.5 7.75C21.3271 7.75 25.25 11.6729 25.25 16.5C25.25 21.3271 21.3271 25.25 16.5 25.25Z"/>
</svg>
